<svg aria-hidden="true" style="position:absolute;width:0;height:0" xmlns="http://www.w3.org/2000/svg" overflow="hidden"><defs><symbol id="icon-icon-fecebook" viewBox="0 0 16 32"><path d="M11.164.184v3.807s-2.806-.28-3.508.795c-.384.588-.156 2.309-.19 3.545h3.722c-.314 1.445-.539 2.424-.771 3.675H7.446v11.828H2.289V12.052H.095V8.331h2.17c.111-2.721.152-5.417 1.505-6.79C5.289-.003 6.738.183 11.165.183z"/></symbol><symbol id="icon-icon-instagram" viewBox="0 0 32 32"><path d="M20.97 23.833H3.234a2.957 2.957 0 0 1-2.956-2.957V3.141A2.957 2.957 0 0 1 3.234.184H20.97a2.957 2.957 0 0 1 2.956 2.957v17.735a2.957 2.957 0 0 1-2.956 2.957zM12.101 7.426a4.58 4.58 0 0 0-4.155 2.66h-.005l-.02.051a5.095 5.095 0 0 0-.118.297c-.018.049-.037.096-.053.144a4.166 4.166 0 0 0-.088.314c-.013.049-.028.098-.039.148a4.227 4.227 0 0 0-.056.34c-.006.046-.016.091-.021.139a4.582 4.582 0 1 0 9.11 0c-.006-.047-.015-.092-.021-.139a4.724 4.724 0 0 0-.056-.34c-.011-.05-.026-.099-.039-.148a4.166 4.166 0 0 0-.088-.314c-.016-.048-.035-.095-.053-.144-.037-.1-.075-.2-.118-.297l-.02-.051h-.005a4.578 4.578 0 0 0-4.155-2.66zm9.164-3.399a1.18 1.18 0 0 0-1.182-1.181h-2.365a1.18 1.18 0 0 0-1.182 1.181v2.366c0 .653.529 1.182 1.182 1.182h2.365c.653 0 1.182-.529 1.182-1.182V4.027zm0 6.06h-2.18a7.24 7.24 0 0 1-6.983 9.163 7.24 7.24 0 0 1-6.983-9.163h-2.18v9.903c0 .654.529 1.183 1.182 1.183h15.963c.653 0 1.182-.529 1.182-1.183v-9.903z"/></symbol><symbol id="icon-icon-pinterest" viewBox="0 0 26 32"><path d="M8.356 15.569c-.193.769-.388 1.576-.589 2.365-.199.778-.374 1.567-.663 2.282-.479 1.183-1.088 2.327-1.887 3.253-.531.616-.418.37-.578.337-.122-.026-.132-.145-.156-.319-.13-.94-.042-2.028.006-3.084.055-1.205.309-2.206.544-3.206.447-1.907.874-3.775 1.326-5.694.03-.127.111-.338.083-.411a5.904 5.904 0 0 1-.396-1.571 5.015 5.015 0 0 1 .128-1.795c.256-.977.843-1.843 1.75-2.16.576-.2 1.215-.109 1.603.122.399.239.673.616.801 1.151.137.568.036 1.248-.074 1.747-.247 1.126-.571 1.971-.866 3.058-.146.539-.311 1.092-.175 1.674.126.534.404.902.782 1.178.394.286.859.443 1.501.42 1.134-.04 1.922-.765 2.449-1.448.843-1.095 1.353-2.572 1.547-4.329.062-.567.108-1.218.065-1.86-.081-1.186-.452-2.14-1.041-2.879-.56-.705-1.354-1.265-2.321-1.581-.958-.312-2.284-.417-3.461-.215-2.141.367-3.651 1.583-4.54 3.264a6.536 6.536 0 0 0-.773 3.15c0 .971.239 1.723.626 2.309.123.186.303.339.423.552.171.301-.026.749-.11 1.075-.102.393-.113.935-.571.944-.19.004-.429-.135-.589-.224-1.206-.666-1.937-1.878-2.237-3.449a8.238 8.238 0 0 1 0-2.991 8.528 8.528 0 0 1 4.061-5.675C6.055.949 7.218.522 8.633.316c.469-.068.955-.097 1.483-.122a8.916 8.916 0 0 1 3.996.748 8.17 8.17 0 0 1 2.753 1.982c.774.845 1.338 1.828 1.694 3.057.187.639.368 1.323.368 2.113 0 .793-.167 1.49-.285 2.188-.438 2.612-1.68 4.749-3.545 5.966a6.139 6.139 0 0 1-1.62.747c-.616.179-1.319.314-2.072.261a4.233 4.233 0 0 1-1.832-.533c-.499-.282-.918-.627-1.216-1.149z"/></symbol><symbol id="icon-icon-twwiter" viewBox="0 0 38 32"><path d="M19.086.648c2.217-.039 3.397.768 4.524 1.795.957-.082 2.2-.616 2.933-.988l.712-.389c-.419 1.13-.985 2.015-1.857 2.687-.194.148-.386.35-.629.445v.014c1.242-.012 2.267-.573 3.24-.877v.014c-.511.812-1.203 1.637-1.941 2.228l-.894.709c.016 1.315-.02 2.571-.265 3.676-1.43 6.424-5.218 10.786-11.213 12.655-2.153.67-5.632.946-8.099.333-1.223-.303-2.328-.646-3.364-1.1a13.208 13.208 0 0 1-1.621-.836l-.502-.305c.556.016 1.208.17 1.829.069.563-.09 1.115-.066 1.635-.18 1.295-.284 2.444-.66 3.434-1.24.481-.281 1.21-.61 1.551-1.016-.643.011-1.226-.138-1.703-.306-1.852-.654-2.929-1.856-3.631-3.662.561.062 2.177.208 2.556-.111-.706-.039-1.385-.448-1.871-.752-1.49-.932-2.704-2.495-2.695-4.9l.586.278c.375.158.755.242 1.201.335.189.039.566.149.782.069h-.028c-.288-.335-.757-.558-1.047-.919C1.753 7.187.858 5.36 1.424 3.182c.144-.553.372-1.04.615-1.49l.028.013c.111.233.36.404.517.599.488.605 1.09 1.149 1.703 1.628 2.09 1.635 3.972 2.639 6.995 3.383.767.19 1.653.333 2.57.335-.257-.749-.174-1.962.027-2.686.51-1.824 1.616-3.138 3.24-3.843a6.941 6.941 0 0 1 1.271-.39l.699-.083z"/></symbol></defs></svg>