<svg aria-hidden="true" style="position: absolute; width: 0; height: 0; overflow: hidden;" version="1.1" xmlns="http://www.w3.org/2000/svg" xmlns:xlink="http://www.w3.org/1999/xlink">
<defs>
<symbol id="icon-icon-fecebook" viewBox="0 0 16 32">
<title>icon-fecebook</title>
<path d="M11.164 0.184c0 1.363 0 3.807 0 3.807s-2.806-0.28-3.508 0.795c-0.384 0.588-0.156 2.309-0.19 3.545 1.225 0 2.497 0 3.722 0-0.314 1.445-0.539 2.424-0.771 3.675-1.060 0-2.971 0-2.971 0v11.828c0 0-3.508 0-5.157 0 0.001-3.646-0.001-7.9 0-11.782-0.801 0-1.393 0-2.194 0 0-1.364 0-2.357 0-3.721 0.777 0 1.392 0 2.17 0 0.111-2.721 0.152-5.417 1.505-6.79 1.519-1.544 2.968-1.358 7.395-1.358z"></path>
</symbol>
<symbol id="icon-icon-instagram" viewBox="0 0 32 32">
<title>icon-instagram</title>
<path d="M20.97 23.833h-17.736c-1.632 0-2.956-1.324-2.956-2.957v-17.735c0-1.633 1.324-2.957 2.956-2.957h17.736c1.632 0 2.956 1.324 2.956 2.957v17.735c0 1.633-1.324 2.957-2.956 2.957zM12.101 7.426c-1.844 0-3.428 1.092-4.155 2.66h-0.005c-0.007 0.017-0.013 0.034-0.020 0.051-0.043 0.097-0.081 0.197-0.118 0.297-0.018 0.049-0.037 0.096-0.053 0.144-0.034 0.103-0.062 0.208-0.088 0.314-0.013 0.049-0.028 0.098-0.039 0.148-0.024 0.112-0.041 0.225-0.056 0.34-0.006 0.046-0.016 0.091-0.021 0.139-0.017 0.161-0.027 0.324-0.027 0.491 0 2.53 2.052 4.581 4.582 4.581s4.582-2.051 4.582-4.581c0-0.166-0.010-0.33-0.027-0.491-0.006-0.047-0.015-0.092-0.021-0.139-0.016-0.115-0.032-0.228-0.056-0.34-0.011-0.050-0.026-0.099-0.039-0.148-0.026-0.106-0.054-0.211-0.088-0.314-0.016-0.048-0.035-0.095-0.053-0.144-0.037-0.1-0.075-0.2-0.118-0.297-0.007-0.017-0.013-0.034-0.020-0.051h-0.005c-0.727-1.569-2.311-2.66-4.155-2.66zM21.265 4.027c0-0.653-0.529-1.181-1.182-1.181h-2.365c-0.653 0-1.182 0.528-1.182 1.181v2.366c0 0.653 0.529 1.182 1.182 1.182h2.365c0.653 0 1.182-0.529 1.182-1.182v-2.366zM21.265 10.087h-2.18c0.168 0.612 0.259 1.257 0.259 1.922 0 4-3.242 7.241-7.242 7.241s-7.242-3.241-7.242-7.241c0-0.665 0.091-1.31 0.259-1.922h-2.18v9.903c0 0.654 0.529 1.183 1.182 1.183h15.963c0.653 0 1.182-0.529 1.182-1.183v-9.903z"></path>
</symbol>
<symbol id="icon-icon-pinterest" viewBox="0 0 26 32">
<title>icon-pinterest</title>
<path d="M8.356 15.569c-0.193 0.769-0.388 1.576-0.589 2.365-0.199 0.778-0.374 1.567-0.663 2.282-0.479 1.183-1.088 2.327-1.887 3.253-0.531 0.616-0.418 0.37-0.578 0.337-0.122-0.026-0.132-0.145-0.156-0.319-0.13-0.94-0.042-2.028 0.006-3.084 0.055-1.205 0.309-2.206 0.544-3.206 0.447-1.907 0.874-3.775 1.326-5.694 0.030-0.127 0.111-0.338 0.083-0.411-0.205-0.533-0.338-1.012-0.396-1.571-0.067-0.642-0.016-1.242 0.128-1.795 0.256-0.977 0.843-1.843 1.75-2.16 0.576-0.2 1.215-0.109 1.603 0.122 0.399 0.239 0.673 0.616 0.801 1.151 0.137 0.568 0.036 1.248-0.074 1.747-0.247 1.126-0.571 1.971-0.866 3.058-0.146 0.539-0.311 1.092-0.175 1.674 0.126 0.534 0.404 0.902 0.782 1.178 0.394 0.286 0.859 0.443 1.501 0.42 1.134-0.040 1.922-0.765 2.449-1.448 0.843-1.095 1.353-2.572 1.547-4.329 0.062-0.567 0.108-1.218 0.065-1.86-0.081-1.186-0.452-2.14-1.041-2.879-0.56-0.705-1.354-1.265-2.321-1.581-0.958-0.312-2.284-0.417-3.461-0.215-2.141 0.367-3.651 1.583-4.54 3.264-0.466 0.879-0.773 1.891-0.773 3.15 0 0.971 0.239 1.723 0.626 2.309 0.123 0.186 0.303 0.339 0.423 0.552 0.171 0.301-0.026 0.749-0.11 1.075-0.102 0.393-0.113 0.935-0.571 0.944-0.19 0.004-0.429-0.135-0.589-0.224-1.206-0.666-1.937-1.878-2.237-3.449-0.183-0.955-0.182-2.068 0-2.991 0.176-0.893 0.503-1.716 0.866-2.384 0.752-1.388 1.854-2.499 3.195-3.291 1.031-0.61 2.194-1.037 3.609-1.243 0.469-0.068 0.955-0.097 1.483-0.122 1.541-0.072 2.941 0.277 3.996 0.748 1.113 0.498 2.002 1.16 2.753 1.982 0.774 0.845 1.338 1.828 1.694 3.057 0.187 0.639 0.368 1.323 0.368 2.113 0 0.793-0.167 1.49-0.285 2.188-0.438 2.612-1.68 4.749-3.545 5.966-0.452 0.294-0.999 0.566-1.62 0.747-0.616 0.179-1.319 0.314-2.072 0.261-0.731-0.050-1.329-0.248-1.832-0.533-0.499-0.282-0.918-0.627-1.216-1.149z"></path>
</symbol>
<symbol id="icon-icon-twwiter" viewBox="0 0 38 32">
<title>icon-twwiter</title>
<path d="M19.086 0.648c2.217-0.039 3.397 0.768 4.524 1.795 0.957-0.082 2.2-0.616 2.933-0.988 0.236-0.129 0.474-0.259 0.712-0.389-0.419 1.13-0.985 2.015-1.857 2.687-0.194 0.148-0.386 0.35-0.629 0.445 0 0.004 0 0.010 0 0.014 1.242-0.012 2.267-0.573 3.24-0.877 0 0.004 0 0.010 0 0.014-0.511 0.812-1.203 1.637-1.941 2.228-0.298 0.237-0.596 0.473-0.894 0.709 0.016 1.315-0.020 2.571-0.265 3.676-1.43 6.424-5.218 10.786-11.213 12.655-2.153 0.67-5.632 0.946-8.099 0.333-1.223-0.303-2.328-0.646-3.364-1.1-0.577-0.252-1.111-0.524-1.621-0.836-0.168-0.101-0.335-0.204-0.502-0.305 0.556 0.016 1.208 0.17 1.829 0.069 0.563-0.090 1.115-0.066 1.635-0.18 1.295-0.284 2.444-0.66 3.434-1.24 0.481-0.281 1.21-0.61 1.551-1.016-0.643 0.011-1.226-0.138-1.703-0.306-1.852-0.654-2.929-1.856-3.631-3.662 0.561 0.062 2.177 0.208 2.556-0.111-0.706-0.039-1.385-0.448-1.871-0.752-1.49-0.932-2.704-2.495-2.695-4.9 0.196 0.093 0.391 0.185 0.586 0.278 0.375 0.158 0.755 0.242 1.201 0.335 0.189 0.039 0.566 0.149 0.782 0.069-0.010 0-0.019 0-0.028 0-0.288-0.335-0.757-0.558-1.047-0.919-0.956-1.187-1.851-3.014-1.285-5.192 0.144-0.553 0.372-1.040 0.615-1.49 0.010 0.004 0.019 0.009 0.028 0.013 0.111 0.233 0.36 0.404 0.517 0.599 0.488 0.605 1.090 1.149 1.703 1.628 2.090 1.635 3.972 2.639 6.995 3.383 0.767 0.19 1.653 0.333 2.57 0.335-0.257-0.749-0.174-1.962 0.027-2.686 0.51-1.824 1.616-3.138 3.24-3.843 0.388-0.168 0.818-0.291 1.271-0.39 0.233-0.027 0.465-0.056 0.699-0.083z"></path>
</symbol>
</defs>
</svg>
